<svg width="470" height="620" viewBox="0 0 940 1240" fill="none" xmlns="http://www.w3.org/2000/svg">
  <path d="M232 0H0V232H232V0Z" fill="#6366f1"/>
  <path d="M232 1008H0V1240H232V1008Z" fill="#6366f1"/>
  <path d="M940 0H708V232H940V0Z" fill="#d946ef"/>
  <path d="M940 1008H708V1240H940V1008Z" fill="#d946ef"/>
  <circle cx="470" cy="490" r="300" fill="url(#gradient)"/>
  <defs>
    <linearGradient id="gradient" x1="170" y1="490" x2="770" y2="490" gradientUnits="userSpaceOnUse">
      <stop offset="0" stop-color="#6366f1"/>
      <stop offset="1" stop-color="#d946ef"/>
    </linearGradient>
  </defs>
  
  <path d="M74.9779 1225.93H36.9179V1126.46C36.9179 1120.88 36.8379 1116.54 36.6779 1113.45C36.5979 1110.35 36.3579 1107.94 35.9379 1106.22C35.5179 1104.5 34.8579 1103.26 33.9579 1102.52C33.1379 1101.78 32.0579 1101.41 30.7179 1101.41C27.4579 1101.41 24.7579 1103.37 22.6179 1107.3C20.5579 1111.23 19.5279 1117.41 19.5279 1125.83V1225.93H0V1126.46C0 1120.88 -0.0800012 1116.54 -0.240001 1113.45C-0.320001 1110.35 -0.560001 1107.94 -0.980001 1106.22C-1.4 1104.5 -2.06 1103.26 -2.96 1102.52C-3.78 1101.78 -4.86 1101.41 -6.2 1101.41C-9.46 1101.41 -12.16 1103.37 -14.3 1107.3C-16.36 1111.23 -17.39 1117.41 -17.39 1125.83V1225.93H-55.45V1087.74H-17.39V1100.14C-12.73 1091.42 -5.03 1087.07 5.71 1087.07C11.2 1087.07 15.73 1088.71 19.3 1091.99C22.95 1095.19 25.18 1099.12 25.99 1103.77C30.81 1092.57 38.96 1086.97 50.42 1086.97C57.76 1086.97 63.4 1089.13 67.35 1093.44C71.37 1097.67 73.37 1103.58 73.37 1111.16C73.37 1114.35 73.05 1119.18 72.39 1125.63C71.81 1132 71.51 1136.61 71.51 1139.48V1225.93H74.98L74.9779 1225.93ZM169.878 1178.36C169.878 1188.02 169.958 1195.73 170.118 1201.49C170.358 1207.25 170.838 1212 171.578 1215.74C172.318 1219.5 173.378 1222.5 174.758 1224.77C176.218 1227.03 178.118 1228.17 180.458 1228.17C182.758 1228.17 184.598 1227.07 185.978 1224.87C187.438 1222.67 188.458 1219.7 189.038 1215.94C189.698 1212.18 190.118 1207.4 190.278 1201.59C190.438 1195.7 190.518 1187.93 190.518 1178.26C190.518 1168.6 190.438 1160.85 190.278 1155.09C190.118 1149.25 189.698 1144.44 189.038 1140.66C188.378 1136.88 187.398 1133.95 186.018 1131.85C184.638 1129.67 182.798 1128.57 180.498 1128.57C178.158 1128.57 176.218 1129.67 174.678 1131.85C173.218 1133.95 172.118 1136.91 171.378 1140.7C170.638 1144.4 170.158 1149.18 169.918 1155.02C169.758 1160.78 169.678 1168.56 169.678 1178.29L169.878 1178.36ZM131.378 1160.08C131.378 1151.36 131.938 1143.57 133.058 1136.74C134.178 1129.83 136.118 1123.96 138.878 1119.15C141.638 1114.34 145.338 1110.66 149.978 1108.1C154.618 1105.54 160.458 1104.26 167.498 1104.26C174.458 1104.26 180.218 1105.77 184.778 1108.81C189.338 1111.84 192.978 1116.13 195.698 1121.69C198.418 1127.24 200.238 1133.76 201.178 1141.23C202.118 1148.7 202.578 1156.67 202.578 1165.12C202.578 1177.09 202.018 1187.12 200.918 1195.19C199.818 1203.26 198.018 1209.82 195.538 1214.87C193.058 1219.92 189.778 1223.63 185.698 1226.03C181.618 1228.42 176.698 1229.62 170.938 1229.62C164.218 1229.62 158.738 1227.42 154.498 1223.03C150.258 1218.63 147.538 1214.13 146.338 1209.52V1259H131.378V1160.08ZM253.17 1225.93H238.21V1104.26H253.17V1114.68C254.75 1110.27 257.31 1106.67 260.83 1103.9C264.35 1101.13 268.81 1099.74 274.21 1099.74C281.09 1099.74 286.77 1101.52 291.25 1105.07C295.73 1108.62 299.01 1113.4 301.09 1119.4C303.17 1125.41 304.43 1132.36 304.87 1140.27C305.31 1148.17 305.53 1156.2 305.53 1164.35C305.53 1173.66 305.17 1182.17 304.47 1189.89C303.77 1197.6 302.31 1204.31 300.09 1210.03C297.87 1215.74 294.71 1220.18 290.61 1223.36C286.51 1226.54 281.25 1228.13 274.85 1228.13C268.65 1228.13 262.97 1225.93 257.83 1221.52C252.69 1217.12 253.17 1214.87 253.17 1209.52V1225.93ZM267.49 1176.8C267.49 1166.85 267.89 1158.08 268.69 1150.48C269.49 1142.88 270.83 1136.67 272.71 1131.85C274.59 1127.03 277.11 1123.67 280.27 1121.77C283.43 1119.87 287.27 1118.92 291.79 1118.92C299.11 1118.92 304.11 1122.67 306.79 1130.17C309.47 1137.67 310.81 1149.23 310.81 1164.84C310.81 1180.45 309.27 1192.03 306.19 1199.59C303.11 1207.16 298.23 1210.94 291.55 1210.94C288.31 1210.94 285.39 1210.03 282.79 1208.2C280.19 1206.38 277.95 1203.13 276.07 1198.48C274.19 1193.82 272.75 1187.4 271.75 1179.21C270.91 1171.01 270.39 1156.9 270.39 1136.88L267.49 1176.8ZM324.752 1225.93V1104.26H339.712V1115.32C341.112 1111.61 343.952 1108.32 348.232 1105.44C352.512 1102.56 357.312 1101.12 362.632 1101.12C372.032 1101.12 378.792 1103.83 382.912 1109.26C387.032 1114.68 389.112 1122.63 389.152 1133.12V1225.93H354.312V1148.76C354.312 1143.72 353.872 1139.55 352.992 1136.24C352.112 1132.94 350.352 1131.28 347.712 1131.28C344.472 1131.28 342.032 1133.24 340.392 1137.17C338.752 1141.1 337.912 1147.2 337.872 1155.48V1225.93H324.752ZM414.59 1225.93H399.63V1104.26H414.59V1115.52C416.39 1111.61 419.19 1108.32 422.99 1105.44C426.79 1102.56 431.11 1101.12 435.97 1101.12C445.37 1101.12 452.15 1103.9 456.31 1109.46C460.47 1115.01 462.55 1123.33 462.55 1134.12V1225.93H427.71V1136.64C427.71 1133.33 427.47 1130.43 426.99 1127.92C426.51 1125.41 425.67 1123.44 424.47 1122.01C423.27 1120.59 421.53 1119.87 419.27 1119.87C416.51 1119.87 414.27 1120.88 412.55 1122.91C410.83 1124.94 409.91 1127.76 409.79 1131.38V1225.93H414.59ZM488.232 1225.93H473.272V1104.26H488.232V1225.93ZM488.232 1081.65H473.272V1057.71H488.232V1081.65ZM500.232 1225.93V1104.26H515.192V1115.32C516.592 1111.61 519.432 1108.32 523.712 1105.44C527.992 1102.56 532.792 1101.12 538.112 1101.12C547.512 1101.12 554.272 1103.83 558.392 1109.26C562.512 1114.68 564.592 1122.63 564.632 1133.12V1225.93H529.792V1148.76C529.792 1143.72 529.352 1139.55 528.472 1136.24C527.592 1132.94 525.832 1131.28 523.192 1131.28C519.952 1131.28 517.512 1133.24 515.872 1137.17C514.232 1141.1 513.392 1147.2 513.352 1155.48V1225.93H500.232ZM659.57 1178.36C659.57 1188.02 659.65 1195.73 659.81 1201.49C660.05 1207.25 660.53 1212 661.27 1215.74C662.01 1219.5 663.07 1222.5 664.45 1224.77C665.91 1227.03 667.81 1228.17 670.15 1228.17C672.45 1228.17 674.29 1227.07 675.67 1224.87C677.13 1222.67 678.15 1219.7 678.73 1215.94C679.39 1212.18 679.81 1207.4 679.97 1201.59C680.13 1195.7 680.21 1187.93 680.21 1178.26C680.21 1168.6 680.13 1160.85 679.97 1155.09C679.81 1149.25 679.39 1144.44 678.73 1140.66C678.07 1136.88 677.09 1133.95 675.71 1131.85C674.33 1129.67 672.49 1128.57 670.19 1128.57C667.85 1128.57 665.91 1129.67 664.37 1131.85C662.91 1133.95 661.81 1136.91 661.07 1140.7C660.33 1144.4 659.85 1149.18 659.61 1155.02C659.45 1160.78 659.37 1168.56 659.37 1178.29L659.57 1178.36ZM621.07 1160.08C621.07 1151.36 621.63 1143.57 622.75 1136.74C623.87 1129.83 625.81 1123.96 628.57 1119.15C631.33 1114.34 635.03 1110.66 639.67 1108.1C644.31 1105.54 650.15 1104.26 657.19 1104.26C664.15 1104.26 669.91 1105.77 674.47 1108.81C679.03 1111.84 682.67 1116.13 685.39 1121.69C688.11 1127.24 689.93 1133.76 690.87 1141.23C691.81 1148.7 692.27 1156.67 692.27 1165.12C692.27 1177.09 691.71 1187.12 690.61 1195.19C689.51 1203.26 687.71 1209.82 685.23 1214.87C682.75 1219.92 679.47 1223.63 675.39 1226.03C671.31 1228.42 666.39 1229.62 660.63 1229.62C653.91 1229.62 648.43 1227.42 644.19 1223.03C639.95 1218.63 637.23 1214.13 636.03 1209.52V1259H621.07V1160.08ZM790.622 1172.4V1183.27H711.762V1172.4H790.622ZM817.36 1164.85C817.36 1174.31 818.4 1182.27 820.48 1188.73C822.56 1195.19 825.92 1198.92 830.56 1199.92C835.2 1199.92 838.64 1196.16 840.88 1188.63C843.12 1181.11 844.24 1173.16 844.24 1164.8C844.24 1156.44 843.12 1147.96 840.88 1139.36C838.64 1130.76 835.2 1127.04 830.56 1127.04C825.92 1127.04 822.56 1130.83 820.48 1138.42C818.4 1146.01 817.36 1154.24 817.36 1163.12V1164.85ZM861.36 1165.32C861.36 1189.77 858 1208.56 851.28 1221.69C844.56 1234.83 835.04 1241.39 822.72 1241.39C815.76 1241.39 809.84 1239.33 804.96 1235.2C800.08 1231.07 796.24 1225.39 793.44 1218.19V1258.99H778.48V1104.26H793.44V1114.68C795.28 1110.27 798.32 1106.67 802.56 1103.9C806.8 1101.13 811.28 1099.74 816 1099.74C821.76 1099.74 826.72 1101.49 830.88 1104.99C835.04 1108.49 838.4 1113.26 840.96 1119.3C843.52 1125.34 845.36 1132.41 846.48 1140.51C847.6 1148.61 848.16 1157.08 848.16 1165.92C848.16 1174.76 847.72 1182.87 846.84 1190.24C845.96 1197.61 844.36 1204.27 842.04 1210.23C839.72 1216.19 836.48 1220.99 832.32 1224.63C828.16 1228.27 822.64 1230.09 815.76 1230.09C811.44 1230.09 807.76 1228.97 804.72 1226.73C801.68 1224.49 799.44 1221.69 798 1218.34V1226.73H818.72L817.36 1165.32ZM939.79 1187.25C939.79 1192.65 939.43 1197.53 938.71 1201.88C937.99 1206.24 936.75 1209.98 934.99 1213.13C933.23 1216.27 930.87 1218.7 927.91 1220.44C924.95 1222.17 921.23 1223.04 916.75 1223.04C914.15 1223.04 911.79 1221.87 909.67 1219.54C907.55 1217.21 906.47 1212.97 906.43 1206.84V1125.44C906.43 1119.3 907.55 1114.28 909.79 1110.36C912.03 1106.44 915.39 1104.47 919.87 1104.47C924.19 1104.47 927.51 1105.83 929.83 1108.54C932.15 1111.26 933.79 1114.84 934.79 1119.28C935.79 1123.73 936.39 1128.8 936.59 1134.52C936.79 1140.24 936.99 1146.08 937.19 1152.05L945.67 1127.04H962.71V1205.95C962.71 1211.48 961.39 1215.88 958.75 1219.15C956.11 1222.41 952.43 1224.04 947.71 1224.04C943.07 1224.04 939.35 1222.45 936.55 1219.25C933.75 1216.05 932.35 1211.61 932.35 1205.95V1187.25H939.79Z" fill="url(#gradient)"/>
</svg> 